<?xml version="1.0" encoding="UTF-8" standalone="no"?>
<!-- Created with Inkscape (http://www.inkscape.org/) -->

<svg
   width="200"
   height="200"
   viewBox="0 0 52.916665 52.916668"
   version="1.1"
   id="svg8"
   inkscape:version="1.1.1 (3bf5ae0d25, 2021-09-20)"
   sodipodi:docname="menu_books.svg"
   inkscape:export-filename="C:\Users\elouk\Desktop\menu_books.png"
   inkscape:export-xdpi="96"
   inkscape:export-ydpi="96"
   xmlns:inkscape="http://www.inkscape.org/namespaces/inkscape"
   xmlns:sodipodi="http://sodipodi.sourceforge.net/DTD/sodipodi-0.dtd"
   xmlns="http://www.w3.org/2000/svg"
   xmlns:svg="http://www.w3.org/2000/svg"
   xmlns:rdf="http://www.w3.org/1999/02/22-rdf-syntax-ns#"
   xmlns:cc="http://creativecommons.org/ns#"
   xmlns:dc="http://purl.org/dc/elements/1.1/">
  <defs
     id="defs2" />
  <sodipodi:namedview
     id="base"
     pagecolor="#ffffff"
     bordercolor="#666666"
     borderopacity="1.0"
     inkscape:pageopacity="0.0"
     inkscape:pageshadow="2"
     inkscape:zoom="2.8"
     inkscape:cx="137.85714"
     inkscape:cy="104.46429"
     inkscape:document-units="px"
     inkscape:current-layer="layer1"
     showgrid="false"
     units="px"
     inkscape:pagecheckerboard="true"
     inkscape:window-width="1920"
     inkscape:window-height="991"
     inkscape:window-x="-9"
     inkscape:window-y="-9"
     inkscape:window-maximized="1" />
  <metadata
     id="metadata5">
    <rdf:RDF>
      <cc:Work
         rdf:about="">
        <dc:format>image/svg+xml</dc:format>
        <dc:type
           rdf:resource="http://purl.org/dc/dcmitype/StillImage" />
        <dc:title />
      </cc:Work>
    </rdf:RDF>
  </metadata>
  <g
     inkscape:label="Layer 1"
     inkscape:groupmode="layer"
     id="layer1"
     transform="translate(0,-244.08332)">
    <path
       style="fill:none;stroke:#729ccd;stroke-width:0.820208;stroke-linecap:butt;stroke-linejoin:miter;stroke-miterlimit:4;stroke-dasharray:none;stroke-opacity:1"
       d="m 7.138919,265.96771 c 1.7512529,1.53624 1.0074157,3.58429 1.1903868,5.44222"
       id="path12507-9"
       sodipodi:nodetypes="cc" />
    <path
       style="fill:none;stroke:#729ccd;stroke-width:0.820208;stroke-linecap:butt;stroke-linejoin:miter;stroke-miterlimit:4;stroke-dasharray:none;stroke-opacity:1"
       d="m 24.822658,279.79721 0.0879,5.67608"
       id="path12507-1" />
    <path
       d="m 47.358998,274.79954 c -1.264206,0.67047 -1.057711,3.4709 -1.118007,5.24752"
       style="fill:none;stroke:#729ccd;stroke-width:0.820208;stroke-linecap:butt;stroke-linejoin:miter;stroke-miterlimit:4;stroke-dasharray:none;stroke-opacity:1"
       id="path16019"
       sodipodi:nodetypes="cc" />
    <path
       style="fill:none;stroke:#729ccd;stroke-width:0.820208;stroke-linecap:butt;stroke-linejoin:miter;stroke-miterlimit:4;stroke-dasharray:none;stroke-opacity:1"
       d="m 48.895256,257.36233 c -1.741682,1.21616 -1.223077,3.35278 -1.283372,5.1294"
       id="path12406-0"
       sodipodi:nodetypes="cc" />
    <path
       style="opacity:1;fill:#729ccd;fill-opacity:1;stroke:#729ccd;stroke-width:0.264583px;stroke-linecap:butt;stroke-linejoin:miter;stroke-opacity:1"
       d="m 49.136904,264.39954 c 0,0 1.975608,-0.38134 2.267857,-0.66146 0.242962,-0.23288 -3.118303,-1.46466 -3.118303,-1.46466 l -22.111607,5.71689 -17.3750929,-4.90188 c 0,0 -1.0861444,-0.89478 -1.3428347,-2.0124 -0.2566904,-1.11762 -0.086388,-2.72411 -0.086388,-2.72411 -0.021495,0.009 0.15119,-1.16878 0.8614186,-1.52001 0.7102286,-0.35122 1.784415,0.0916 1.784415,0.0916 l 16.205729,5.30264 23.387276,-4.8192 0.850445,-0.51972 0.377979,-0.66143 -16.300225,-5.10267 -25.9386148,3.54352 c -0.00917,0.002 -0.8080172,0.33452 -1.5119046,0.99219 -0.7038874,0.65767 -0.9061573,1.23246 -1.0866818,2.07887 -0.1805245,0.84641 -0.1247954,3.12581 0.2126118,4.18136 0.3374072,1.05556 1.2992931,2.24423 1.2992931,2.24423 0,0 -2.0203436,0.23404 -2.2442337,0.7914 -0.2238901,0.55735 0.3543528,0.9095 0.3543528,0.9095 l 24.1904752,5.14992 16.961682,-5.66964 c 0,0 0.798918,0.10229 1.183622,0.53801 0.384704,0.43572 0.58138,1.28869 0.65147,2.08804 0.07009,0.79935 -0.08468,1.96289 -0.334087,2.60588 -0.24941,0.64299 -0.868626,1.23612 -0.868626,1.23612 L 29.900778,276.6902 7.2216496,271.14436 c 0,0 -2.5564601,0.55161 -2.5778416,1.26953 -0.021382,0.71792 1.1358955,0.66817 1.1358955,0.66817 0,0 -0.7113257,0.63148 -1.1024868,1.97112 -0.3911611,1.33964 -0.176666,3.02414 0.039489,4.09885 0.2630368,1.3078 1.7311722,2.85015 1.7311722,2.85015 l 17.7400141,5.77971 c 0,0 25.827473,-6.13902 25.891735,-6.41448 0.06426,-0.27545 -3.340869,-1.50338 -3.340869,-1.50338 l -22.05952,5.76419 -17.4376579,-4.89557 c 0,0 -1.0439638,-1.04189 -1.1946065,-2.10643 -0.1506427,-1.06454 -0.3337844,-1.78548 -0.090441,-2.9872 0.2433439,-1.20172 1.3697563,-1.50339 1.3697563,-1.50339 l 17.4963691,5.66158 5.011304,-1.00226 0.634765,0.26727 2.071339,-0.7684 16.303441,-3.54132 c 0,0 0.575969,-0.50941 0.451857,-0.91183 -0.124112,-0.40242 -1.220257,-0.65838 -1.220257,-0.65838 0,0 1.152183,-1.09102 1.542532,-2.17527 0.390348,-1.08425 0.547526,-3.10909 0.395172,-4.20579 -0.152355,-1.0967 -0.875907,-2.40169 -0.875907,-2.40169 z"
       id="path3754"
       sodipodi:nodetypes="csccczczccccccczzzczccczzzccccczscczccczzcccccczcczc" />
    <path
       style="fill:none;stroke:#729ccd;stroke-width:0.82020833;stroke-linecap:butt;stroke-linejoin:miter;stroke-opacity:1;stroke-miterlimit:4;stroke-dasharray:none"
       d="m 26.222098,262.22615 -0.04725,5.76416"
       id="path12406" />
    <path
       style="fill:none;stroke:#729ccd;stroke-width:0.82020833;stroke-linecap:butt;stroke-linejoin:miter;stroke-opacity:1;stroke-miterlimit:4;stroke-dasharray:none"
       d="m 29.812871,271.01412 0.0879,5.67608"
       id="path12507" />
  </g>
</svg>
