<?xml version="1.0" encoding="UTF-8" standalone="no"?>
<!-- Created with Inkscape (http://www.inkscape.org/) -->

<svg
   xmlns:dc="http://purl.org/dc/elements/1.1/"
   xmlns:cc="http://creativecommons.org/ns#"
   xmlns:rdf="http://www.w3.org/1999/02/22-rdf-syntax-ns#"
   xmlns:svg="http://www.w3.org/2000/svg"
   xmlns="http://www.w3.org/2000/svg"
   xmlns:sodipodi="http://sodipodi.sourceforge.net/DTD/sodipodi-0.dtd"
   xmlns:inkscape="http://www.inkscape.org/namespaces/inkscape"
   width="200"
   height="200"
   viewBox="0 0 52.916665 52.916668"
   version="1.1"
   id="svg8"
   inkscape:version="0.92.3 (2405546, 2018-03-11)"
   sodipodi:docname="menu_maths.svg"
   inkscape:export-filename="C:\Users\Omni\Desktop\menu_math.png"
   inkscape:export-xdpi="96"
   inkscape:export-ydpi="96">
  <defs
     id="defs2" />
  <sodipodi:namedview
     id="base"
     pagecolor="#ffffff"
     bordercolor="#666666"
     borderopacity="1.0"
     inkscape:pageopacity="0.0"
     inkscape:pageshadow="2"
     inkscape:zoom="0.9899495"
     inkscape:cx="251.28823"
     inkscape:cy="136.40725"
     inkscape:document-units="px"
     inkscape:current-layer="layer1"
     showgrid="false"
     units="px"
     inkscape:pagecheckerboard="true"
     inkscape:window-width="1680"
     inkscape:window-height="987"
     inkscape:window-x="-8"
     inkscape:window-y="-8"
     inkscape:window-maximized="1" />
  <metadata
     id="metadata5">
    <rdf:RDF>
      <cc:Work
         rdf:about="">
        <dc:format>image/svg+xml</dc:format>
        <dc:type
           rdf:resource="http://purl.org/dc/dcmitype/StillImage" />
        <dc:title></dc:title>
      </cc:Work>
    </rdf:RDF>
  </metadata>
  <g
     inkscape:label="Layer 1"
     inkscape:groupmode="layer"
     id="layer1"
     transform="translate(0,-244.08332)">
    <path
       id="path920"
       style="fill:none;fill-rule:evenodd;stroke:#729ccc;stroke-width:1.58749999;stroke-linecap:butt;stroke-linejoin:miter;stroke-opacity:1;stroke-miterlimit:4;stroke-dasharray:none"
       d="M 21.639137,252.87127 6.047619,266.38392 19.654762,268.2738 16.772693,290.99961 5.8586308,266.28942 m 40.9159212,-9.16592 -25.135415,-4.25223 15.874998,18.14285 m 9.260417,-13.89062 -6.898066,27.21428 -2.362351,-13.32366 z m 0,0 -27.11979,11.1503 17.859373,2.74032 -20.741442,19.98549 23.103793,-6.66183" />
    <path
       style="opacity:1;fill:#729ccc;fill-opacity:1;stroke:none;stroke-width:0.56807673;stroke-linecap:round;stroke-miterlimit:3;stroke-dasharray:none;stroke-dashoffset:0;stroke-opacity:1"
       id="path848"
       sodipodi:type="arc"
       sodipodi:cx="21.619844"
       sodipodi:cy="253.10014"
       sodipodi:rx="3.6916809"
       sodipodi:ry="3.6962163"
       sodipodi:start="1.6012244"
       sodipodi:end="1.6002191"
       sodipodi:open="true"
       d="m 21.507531,256.79465 a 3.6916809,3.6962163 0 0 1 -3.577687,-3.80603 3.6916809,3.6962163 0 0 1 3.800459,-3.58304 3.6916809,3.6962163 0 0 1 3.579597,3.80423 3.6916809,3.6962163 0 0 1 -3.798659,3.58495" />
    <path
       style="opacity:1;fill:#729ccc;fill-opacity:1;stroke:none;stroke-width:0.56807673;stroke-linecap:round;stroke-miterlimit:3;stroke-dasharray:none;stroke-dashoffset:0;stroke-opacity:1"
       id="path848-2"
       sodipodi:type="arc"
       sodipodi:cx="19.421934"
       sodipodi:cy="268.56012"
       sodipodi:rx="3.6916809"
       sodipodi:ry="3.6962163"
       sodipodi:start="1.6012244"
       sodipodi:end="1.6002191"
       sodipodi:open="true"
       d="m 19.309621,272.25463 a 3.6916809,3.6962163 0 0 1 -3.577687,-3.80603 3.6916809,3.6962163 0 0 1 3.800459,-3.58304 3.6916809,3.6962163 0 0 1 3.579597,3.80423 3.6916809,3.6962163 0 0 1 -3.79866,3.58495" />
    <path
       style="opacity:1;fill:#729ccc;fill-opacity:1;stroke:none;stroke-width:0.56807673;stroke-linecap:round;stroke-miterlimit:3;stroke-dasharray:none;stroke-dashoffset:0;stroke-opacity:1"
       id="path848-28"
       sodipodi:type="arc"
       sodipodi:cx="31.303099"
       sodipodi:cy="263.29712"
       sodipodi:rx="3.6916809"
       sodipodi:ry="3.6962163"
       sodipodi:start="1.6012244"
       sodipodi:end="1.6002191"
       sodipodi:open="true"
       d="m 31.190785,266.99162 a 3.6916809,3.6962163 0 0 1 -3.577686,-3.80602 3.6916809,3.6962163 0 0 1 3.800458,-3.58304 3.6916809,3.6962163 0 0 1 3.579597,3.80422 3.6916809,3.6962163 0 0 1 -3.798659,3.58496" />
    <path
       style="opacity:1;fill:#729ccc;fill-opacity:1;stroke:none;stroke-width:0.56807673;stroke-linecap:round;stroke-miterlimit:3;stroke-dasharray:none;stroke-dashoffset:0;stroke-opacity:1"
       id="path848-7"
       sodipodi:type="arc"
       sodipodi:cx="45.908131"
       sodipodi:cy="257.4873"
       sodipodi:rx="3.6916809"
       sodipodi:ry="3.6962163"
       sodipodi:start="1.6012244"
       sodipodi:end="1.6002191"
       sodipodi:open="true"
       d="m 45.795817,261.18181 a 3.6916809,3.6962163 0 0 1 -3.577687,-3.80603 3.6916809,3.6962163 0 0 1 3.800459,-3.58304 3.6916809,3.6962163 0 0 1 3.579597,3.80423 3.6916809,3.6962163 0 0 1 -3.798659,3.58495" />
    <path
       style="opacity:1;fill:#729ccc;fill-opacity:1;stroke:none;stroke-width:0.56807673;stroke-linecap:round;stroke-miterlimit:3;stroke-dasharray:none;stroke-dashoffset:0;stroke-opacity:1"
       id="path848-1"
       sodipodi:type="arc"
       sodipodi:cx="37.233257"
       sodipodi:cy="271.28491"
       sodipodi:rx="3.6916809"
       sodipodi:ry="3.6962163"
       sodipodi:start="1.6012244"
       sodipodi:end="1.6002191"
       sodipodi:open="true"
       d="m 37.120944,274.97942 a 3.6916809,3.6962163 0 0 1 -3.577687,-3.80603 3.6916809,3.6962163 0 0 1 3.800459,-3.58304 3.6916809,3.6962163 0 0 1 3.579597,3.80423 3.6916809,3.6962163 0 0 1 -3.79866,3.58495" />
    <path
       style="opacity:1;fill:#729ccc;fill-opacity:1;stroke:none;stroke-width:0.56807673;stroke-linecap:round;stroke-miterlimit:3;stroke-dasharray:none;stroke-dashoffset:0;stroke-opacity:1"
       id="path848-18"
       sodipodi:type="arc"
       sodipodi:cx="39.88131"
       sodipodi:cy="284.49484"
       sodipodi:rx="3.6916809"
       sodipodi:ry="3.6962163"
       sodipodi:start="1.6012244"
       sodipodi:end="1.6002191"
       sodipodi:open="true"
       d="m 39.768996,288.18935 a 3.6916809,3.6962163 0 0 1 -3.577687,-3.80603 3.6916809,3.6962163 0 0 1 3.800459,-3.58304 3.6916809,3.6962163 0 0 1 3.579597,3.80423 3.6916809,3.6962163 0 0 1 -3.798659,3.58495" />
    <path
       style="opacity:1;fill:#729ccc;fill-opacity:1;stroke:none;stroke-width:0.56807673;stroke-linecap:round;stroke-miterlimit:3;stroke-dasharray:none;stroke-dashoffset:0;stroke-opacity:1"
       id="path848-3"
       sodipodi:type="arc"
       sodipodi:cx="17.084753"
       sodipodi:cy="290.65244"
       sodipodi:rx="3.6916809"
       sodipodi:ry="3.6962163"
       sodipodi:start="1.6012244"
       sodipodi:end="1.6002191"
       sodipodi:open="true"
       d="m 16.97244,294.34694 a 3.6916809,3.6962163 0 0 1 -3.577687,-3.80603 3.6916809,3.6962163 0 0 1 3.800459,-3.58304 3.6916809,3.6962163 0 0 1 3.579597,3.80423 3.6916809,3.6962163 0 0 1 -3.79866,3.58495" />
    <path
       style="opacity:1;fill:#729ccc;fill-opacity:1;stroke:none;stroke-width:0.56807673;stroke-linecap:round;stroke-miterlimit:3;stroke-dasharray:none;stroke-dashoffset:0;stroke-opacity:1"
       id="path848-4"
       sodipodi:type="arc"
       sodipodi:cx="6.4991813"
       sodipodi:cy="266.83038"
       sodipodi:rx="3.6916809"
       sodipodi:ry="3.6962163"
       sodipodi:start="1.6012244"
       sodipodi:end="1.6002191"
       sodipodi:open="true"
       d="m 6.3868679,270.52489 a 3.6916809,3.6962163 0 0 1 -3.5776868,-3.80603 3.6916809,3.6962163 0 0 1 3.8004588,-3.58304 3.6916809,3.6962163 0 0 1 3.5795971,3.80423 3.6916809,3.6962163 0 0 1 -3.7986595,3.58495" />
  </g>
</svg>
