<?xml version="1.0" encoding="UTF-8" standalone="no"?>
<!-- Created with Inkscape (http://www.inkscape.org/) -->

<svg
   xmlns:dc="http://purl.org/dc/elements/1.1/"
   xmlns:cc="http://creativecommons.org/ns#"
   xmlns:rdf="http://www.w3.org/1999/02/22-rdf-syntax-ns#"
   xmlns:svg="http://www.w3.org/2000/svg"
   xmlns="http://www.w3.org/2000/svg"
   xmlns:sodipodi="http://sodipodi.sourceforge.net/DTD/sodipodi-0.dtd"
   xmlns:inkscape="http://www.inkscape.org/namespaces/inkscape"
   width="200"
   height="200"
   viewBox="0 0 52.916665 52.916668"
   version="1.1"
   id="svg8"
   inkscape:version="0.92.3 (2405546, 2018-03-11)"
   sodipodi:docname="menu_design.svg"
   inkscape:export-filename="C:\Users\Omni\Desktop\menu_design.png"
   inkscape:export-xdpi="96"
   inkscape:export-ydpi="96">
  <defs
     id="defs2" />
  <sodipodi:namedview
     id="base"
     pagecolor="#ffffff"
     bordercolor="#666666"
     borderopacity="1.0"
     inkscape:pageopacity="0.0"
     inkscape:pageshadow="2"
     inkscape:zoom="1.979899"
     inkscape:cx="82.259306"
     inkscape:cy="114.68976"
     inkscape:document-units="px"
     inkscape:current-layer="layer1"
     showgrid="false"
     units="px"
     inkscape:pagecheckerboard="true"
     inkscape:window-width="1680"
     inkscape:window-height="987"
     inkscape:window-x="-8"
     inkscape:window-y="-8"
     inkscape:window-maximized="1" />
  <metadata
     id="metadata5">
    <rdf:RDF>
      <cc:Work
         rdf:about="">
        <dc:format>image/svg+xml</dc:format>
        <dc:type
           rdf:resource="http://purl.org/dc/dcmitype/StillImage" />
        <dc:title></dc:title>
      </cc:Work>
    </rdf:RDF>
  </metadata>
  <g
     inkscape:label="Layer 1"
     inkscape:groupmode="layer"
     id="layer1"
     transform="translate(0,-244.08332)">
    <path
       style="fill:#729ccc;fill-opacity:1;fill-rule:evenodd;stroke:none;stroke-width:0.26458332px;stroke-linecap:butt;stroke-linejoin:miter;stroke-opacity:1"
       d="m 42.144418,249.84731 -0.09457,5.57537 -36.8525307,-0.0946 0.094568,33.26205 38.8369047,-0.0946 c 0,0 3.401936,-0.4727 3.496429,-4.25246 0.09449,-3.77976 0,-28.06437 0,-31.93862 0,-2.26786 -3.024105,-2.45721 -3.024105,-2.45721 z m -6.933427,9.73326 1.428853,3.25974 0.02377,16.86719 c 0,0 0.07072,1.32292 -1.34669,1.32292 -1.41741,0 -1.488281,-1.32292 -1.488281,-1.32292 L 33.640027,262.88786 Z M 8.2209082,265.15542 30.899627,284.99917 H 8.2209082 Z m 3.8741818,7.84293 0.09457,7.84293 h 9.165849 z"
       id="path840"
       inkscape:connector-curvature="0" />
    <path
       style="fill:none;fill-rule:evenodd;stroke:#ffffff;stroke-width:0.52916664;stroke-linecap:round;stroke-linejoin:miter;stroke-miterlimit:3;stroke-dasharray:none;stroke-opacity:1"
       d="m 42.085289,255.96826 0.160899,26.28547 c 0,0 1.069078,2e-5 2.605879,2e-5 1.5368,0 2.379427,2.41857 2.379427,2.41857"
       id="path849"
       inkscape:connector-curvature="0"
       sodipodi:nodetypes="ccsc" />
  </g>
</svg>
