<?xml version="1.0" encoding="UTF-8" standalone="no"?>
<!-- Created with Inkscape (http://www.inkscape.org/) -->

<svg
   xmlns:dc="http://purl.org/dc/elements/1.1/"
   xmlns:cc="http://creativecommons.org/ns#"
   xmlns:rdf="http://www.w3.org/1999/02/22-rdf-syntax-ns#"
   xmlns:svg="http://www.w3.org/2000/svg"
   xmlns="http://www.w3.org/2000/svg"
   xmlns:sodipodi="http://sodipodi.sourceforge.net/DTD/sodipodi-0.dtd"
   xmlns:inkscape="http://www.inkscape.org/namespaces/inkscape"
   width="200"
   height="200"
   viewBox="0 0 52.916665 52.916668"
   version="1.1"
   id="svg8"
   inkscape:version="0.92.3 (2405546, 2018-03-11)"
   sodipodi:docname="social_googleMaps.svg"
   inkscape:export-filename="C:\Users\Omni\Desktop\social_googleMaps.png"
   inkscape:export-xdpi="96"
   inkscape:export-ydpi="96">
  <defs
     id="defs2" />
  <sodipodi:namedview
     id="base"
     pagecolor="#ffffff"
     bordercolor="#666666"
     borderopacity="1.0"
     inkscape:pageopacity="0.0"
     inkscape:pageshadow="2"
     inkscape:zoom="2.8"
     inkscape:cx="113.14599"
     inkscape:cy="97.771709"
     inkscape:document-units="px"
     inkscape:current-layer="layer1"
     showgrid="false"
     units="px"
     inkscape:pagecheckerboard="true"
     inkscape:window-width="1680"
     inkscape:window-height="987"
     inkscape:window-x="-8"
     inkscape:window-y="-8"
     inkscape:window-maximized="1" />
  <metadata
     id="metadata5">
    <rdf:RDF>
      <cc:Work
         rdf:about="">
        <dc:format>image/svg+xml</dc:format>
        <dc:type
           rdf:resource="http://purl.org/dc/dcmitype/StillImage" />
        <dc:title />
      </cc:Work>
    </rdf:RDF>
  </metadata>
  <g
     inkscape:label="Layer 1"
     inkscape:groupmode="layer"
     id="layer1"
     transform="translate(0,-244.08332)">
    <path
       style="fill:#cccccc;fill-rule:evenodd;stroke:none;stroke-width:0.23821843px;stroke-linecap:butt;stroke-linejoin:miter;stroke-opacity:1"
       d="m 25.033971,250.13086 c -8.992303,-0.0267 -14.605601,7.80883 -14.639786,14.32848 -0.03419,6.51965 5.631566,13.183 8.539875,16.32174 2.90831,3.13876 3.506973,4.91094 3.506973,4.91094 0.51854,1.38449 1.320756,5.29187 2.941776,5.63818 1.596908,-0.004 2.312308,-3.52249 3.208173,-5.56415 0,0 0.70857,-1.52724 2.806913,-4.31266 2.098343,-2.78543 9.227684,-8.23235 9.234692,-17.53416 0.0023,-3.11509 -2.759402,-13.75022 -15.598616,-13.78837 z m 0.610468,8.72437 a 5.8384865,5.6898375 0 0 1 5.661479,5.85576 5.8384865,5.6898375 0 0 1 -6.007934,5.51873 h -0.0057 a 5.8384865,5.6898375 0 0 1 -5.658145,-5.85895 5.8384865,5.6898375 0 0 1 6.010319,-5.51554 z"
       id="path37"
       inkscape:export-filename="C:\Users\Omni\Desktop\path37.png"
       inkscape:export-xdpi="96"
       inkscape:export-ydpi="96"
       inkscape:connector-curvature="0" />
  </g>
</svg>
