<?xml version="1.0" encoding="UTF-8" standalone="no"?>
<!-- Created with Inkscape (http://www.inkscape.org/) -->

<svg
   xmlns:dc="http://purl.org/dc/elements/1.1/"
   xmlns:cc="http://creativecommons.org/ns#"
   xmlns:rdf="http://www.w3.org/1999/02/22-rdf-syntax-ns#"
   xmlns:svg="http://www.w3.org/2000/svg"
   xmlns="http://www.w3.org/2000/svg"
   xmlns:sodipodi="http://sodipodi.sourceforge.net/DTD/sodipodi-0.dtd"
   xmlns:inkscape="http://www.inkscape.org/namespaces/inkscape"
   width="200"
   height="200"
   viewBox="0 0 52.916665 52.916668"
   version="1.1"
   id="svg8"
   inkscape:version="0.92.3 (2405546, 2018-03-11)"
   sodipodi:docname="social_googleScholar.svg"
   inkscape:export-filename="C:\Users\Omni\Desktop\social_googleScholar.png"
   inkscape:export-xdpi="96"
   inkscape:export-ydpi="96">
  <defs
     id="defs2" />
  <sodipodi:namedview
     id="base"
     pagecolor="#ffffff"
     bordercolor="#666666"
     borderopacity="1.0"
     inkscape:pageopacity="0.0"
     inkscape:pageshadow="2"
     inkscape:zoom="1.979899"
     inkscape:cx="143.6018"
     inkscape:cy="156.85687"
     inkscape:document-units="px"
     inkscape:current-layer="layer1"
     showgrid="false"
     units="px"
     inkscape:pagecheckerboard="true"
     inkscape:window-width="1680"
     inkscape:window-height="987"
     inkscape:window-x="-8"
     inkscape:window-y="-8"
     inkscape:window-maximized="1" />
  <metadata
     id="metadata5">
    <rdf:RDF>
      <cc:Work
         rdf:about="">
        <dc:format>image/svg+xml</dc:format>
        <dc:type
           rdf:resource="http://purl.org/dc/dcmitype/StillImage" />
        <dc:title></dc:title>
      </cc:Work>
    </rdf:RDF>
  </metadata>
  <g
     inkscape:label="Layer 1"
     inkscape:groupmode="layer"
     id="layer1"
     transform="translate(0,-244.08332)">
    <path
       style="fill:#cccccc;fill-rule:evenodd;stroke:none;stroke-width:0.33951139px;stroke-linecap:butt;stroke-linejoin:miter;stroke-opacity:1"
       d="m 43.72579,250.17796 -23.395784,0.0636 -13.5685209,12.0898 9.2384239,0.12863 c 0,0 -0.299782,2.35767 2.015186,5.29426 2.05775,2.8294 7.71659,2.33613 7.71659,2.33613 0,0 -0.600314,1.11479 -0.514571,2.35801 0.08574,1.24323 1.586154,2.91503 1.586154,2.91503 0,0 -5.530583,0.18618 -8.01963,1.35406 -2.385473,1.11929 -5.698652,3.83334 -5.312824,6.8771 0.385828,3.04376 1.371318,4.63016 3.943505,5.91626 2.572188,1.28608 8.907061,1.87564 12.96907,0.23871 4.062012,-1.63691 5.910947,-3.91035 6.335337,-5.8201 0.424389,-1.90975 1.060688,-3.12239 -0.364048,-5.8506 -1.424732,-2.72822 -6.800285,-5.58658 -6.349261,-7.42682 0.450002,-1.83607 1.105022,-1.75762 2.954147,-3.5158 1.849126,-1.75818 2.387553,-3.57871 2.524454,-5.48788 0.136902,-1.90918 -0.835517,-3.84006 -0.835517,-3.84006 l 4.951431,-4.15835 -0.06432,5.05885 c 0,0 -1.307649,0.72863 -1.307652,1.86467 0,0.9227 0.04311,9.06734 0.04311,9.06734 0,0 0.556938,2.2287 2.807599,2.2287 2.250666,0 2.657737,-2.33613 2.657737,-2.33613 0,0 3.4e-4,-7.99534 -0.04243,-8.95991 4e-6,-1.26466 -1.350749,-1.88588 -1.350749,-1.88588 v -7.35255 z m -19.050436,4.37386 c 4.178665,-0.0506 5.647031,4.85395 5.647031,4.85395 0,0 3.000942,7.54845 -2.243298,9.18538 -5.486745,1.75819 -7.214616,-5.27437 -7.214616,-5.27437 0,0 -2.3942,-6.7908 2.42565,-8.57929 0.491647,-0.1222 0.952958,-0.18044 1.385233,-0.18567 z m 3.544743,22.15418 c 0,0 4.706039,2.2145 5.615454,6.44585 -3.206261,9.88564 -15.683679,4.44888 -16.041055,-0.51705 0.478538,-5.29371 6.613669,-5.95685 10.425601,-5.9288 z"
       id="path858"
       inkscape:connector-curvature="0"
       sodipodi:nodetypes="cccccccccsscscscscccccscccccsccccscccc" />
  </g>
</svg>
